<svg width="64" height="64" viewBox="0 0 64 64" fill="none" xmlns="http://www.w3.org/2000/svg">
  <!-- Background circle with gradient -->
  <circle cx="32" cy="32" r="32" fill="url(#gradient1)"/>
  
  <!-- Outer shield glow -->
  <circle cx="32" cy="32" r="30" fill="none" stroke="url(#gradient4)" stroke-width="1" opacity="0.5"/>
  
  <!-- Shield shape -->
  <path d="M32 8L21 13V24C21 35 27 45.5 32 48C37 45.5 43 35 43 24V13L32 8Z" fill="url(#gradient2)" stroke="rgba(255,255,255,0.4)" stroke-width="1.5"/>
  
  <!-- Inner shield design -->
  <path d="M32 13L25 16V26C25 32 28 37 32 40C36 37 39 32 39 26V16L32 13Z" fill="url(#gradient3)"/>
  
  <!-- Lock icon in center -->
  <rect x="28" y="28" width="8" height="6" rx="1.5" fill="white" opacity="0.95"/>
  <path d="M29.5 28V25.5C29.5 24.1 30.6 23 32 23C33.4 23 34.5 24.1 34.5 25.5V28" stroke="white" stroke-width="2" fill="none" opacity="0.95"/>
  
  <!-- Additional security elements -->
  <circle cx="32" cy="31" r="1.5" fill="rgba(243, 157, 18, 0.8)"/>
  
  <!-- Sparkle effects -->
  <circle cx="22" cy="20" r="1.5" fill="white" opacity="0.8"/>
  <circle cx="42" cy="22" r="1.2" fill="white" opacity="0.7"/>
  <circle cx="23" cy="38" r="1" fill="white" opacity="0.6"/>
  <circle cx="41" cy="40" r="1.2" fill="white" opacity="0.7"/>
  <circle cx="32" cy="12" r="0.8" fill="white" opacity="0.9"/>
  
  <!-- Cloak effect lines -->
  <path d="M28 16L28 35" stroke="rgba(255,255,255,0.15)" stroke-width="1" opacity="0.6"/>
  <path d="M36 16L36 35" stroke="rgba(255,255,255,0.15)" stroke-width="1" opacity="0.6"/>
  
  <!-- Gradients -->
  <defs>
    <linearGradient id="gradient1" x1="0%" y1="0%" x2="100%" y2="100%">
      <stop offset="0%" stop-color="#F59E0B"/>
      <stop offset="30%" stop-color="#F97316"/>
      <stop offset="70%" stop-color="#EA580C"/>
      <stop offset="100%" stop-color="#DC2626"/>
    </linearGradient>
    
    <linearGradient id="gradient2" x1="0%" y1="0%" x2="100%" y2="100%">
      <stop offset="0%" stop-color="rgba(255,255,255,0.3)"/>
      <stop offset="50%" stop-color="rgba(255,255,255,0.15)"/>
      <stop offset="100%" stop-color="rgba(255,255,255,0.1)"/>
    </linearGradient>
    
    <linearGradient id="gradient3" x1="0%" y1="0%" x2="100%" y2="100%">
      <stop offset="0%" stop-color="rgba(255,255,255,0.2)"/>
      <stop offset="100%" stop-color="rgba(255,255,255,0.05)"/>
    </linearGradient>
    
    <linearGradient id="gradient4" x1="0%" y1="0%" x2="100%" y2="100%">
      <stop offset="0%" stop-color="rgba(255,255,255,0.6)"/>
      <stop offset="100%" stop-color="rgba(255,255,255,0.2)"/>
    </linearGradient>
  </defs>
</svg>
