<svg width="48" height="48" viewBox="0 0 48 48" fill="none" xmlns="http://www.w3.org/2000/svg">
  <!-- Background circle with gradient -->
  <circle cx="24" cy="24" r="24" fill="url(#gradient1)"/>
  
  <!-- Shield shape -->
  <path d="M24 6L16 10V18C16 26 20.5 33.26 24 36C27.5 33.26 32 26 32 18V10L24 6Z" fill="url(#gradient2)" stroke="rgba(255,255,255,0.3)" stroke-width="1"/>
  
  <!-- Cloak/Cape design -->
  <path d="M24 10L20 12V20C20 24 21.5 27.5 24 30C26.5 27.5 28 24 28 20V12L24 10Z" fill="url(#gradient3)"/>
  
  <!-- Lock icon in center -->
  <rect x="21" y="20" width="6" height="4" rx="1" fill="white" opacity="0.9"/>
  <path d="M22 20V18C22 16.9 22.9 16 24 16C25.1 16 26 16.9 26 18V20" stroke="white" stroke-width="1.5" fill="none" opacity="0.9"/>
  
  <!-- Sparkle effects -->
  <circle cx="17" cy="15" r="1" fill="white" opacity="0.7"/>
  <circle cx="31" cy="17" r="0.8" fill="white" opacity="0.6"/>
  <circle cx="18" cy="28" r="0.6" fill="white" opacity="0.5"/>
  <circle cx="30" cy="30" r="0.7" fill="white" opacity="0.6"/>
  
  <!-- Gradients -->
  <defs>
    <linearGradient id="gradient1" x1="0%" y1="0%" x2="100%" y2="100%">
      <stop offset="0%" stop-color="#F59E0B"/>
      <stop offset="50%" stop-color="#F97316"/>
      <stop offset="100%" stop-color="#EA580C"/>
    </linearGradient>
    
    <linearGradient id="gradient2" x1="0%" y1="0%" x2="100%" y2="100%">
      <stop offset="0%" stop-color="rgba(255,255,255,0.25)"/>
      <stop offset="100%" stop-color="rgba(255,255,255,0.1)"/>
    </linearGradient>
    
    <linearGradient id="gradient3" x1="0%" y1="0%" x2="100%" y2="100%">
      <stop offset="0%" stop-color="rgba(255,255,255,0.15)"/>
      <stop offset="100%" stop-color="rgba(255,255,255,0.05)"/>
    </linearGradient>
  </defs>
</svg>
