<?xml version="1.0" encoding="UTF-8"?>
<!DOCTYPE svg PUBLIC "-//W3C//DTD SVG 1.1//EN" "http://www.w3.org/Graphics/SVG/1.1/DTD/svg11.dtd">
<svg xmlns="http://www.w3.org/2000/svg" version="1.1" width="500px" height="500px" style="shape-rendering:geometricPrecision; text-rendering:geometricPrecision; image-rendering:optimizeQuality; fill-rule:evenodd; clip-rule:evenodd" xmlns:xlink="http://www.w3.org/1999/xlink">
<g><path style="opacity:1" fill="#fefefe" d="M -0.5,-0.5 C 166.167,-0.5 332.833,-0.5 499.5,-0.5C 499.5,166.167 499.5,332.833 499.5,499.5C 332.833,499.5 166.167,499.5 -0.5,499.5C -0.5,332.833 -0.5,166.167 -0.5,-0.5 Z"/></g>
<g><path style="opacity:1" fill="#3ab6fe" d="M 280.5,241.5 C 272.169,216.007 263.335,190.674 254,165.5C 248.339,157.597 240.839,152.597 231.5,150.5C 264.271,146.499 295.271,152.332 324.5,168C 332.841,173.677 339.007,181.177 343,190.5C 344.765,198.96 343.099,206.627 338,213.5C 329.449,222.714 319.282,229.547 307.5,234C 298.665,237.291 289.665,239.791 280.5,241.5 Z"/></g>
<g><path style="opacity:1" fill="#fc9250" d="M 231.5,150.5 C 240.839,152.597 248.339,157.597 254,165.5C 263.335,190.674 272.169,216.007 280.5,241.5C 282.016,248.608 281.682,255.608 279.5,262.5C 269.539,276.324 256.872,279.49 241.5,272C 238.622,269.957 236.289,267.457 234.5,264.5C 231.294,256.875 228.294,249.209 225.5,241.5C 222.111,230.832 218.611,220.165 215,209.5C 213.087,203.906 214.92,201.739 220.5,203C 221.46,204.419 222.293,205.919 223,207.5C 226.902,219.71 231.069,231.71 235.5,243.5C 237.03,248.922 238.863,254.255 241,259.5C 242.715,262.717 245.215,265.05 248.5,266.5C 254.7,269.565 260.366,268.898 265.5,264.5C 272.363,260.08 274.863,253.746 273,245.5C 272.768,244.263 272.268,243.263 271.5,242.5C 263.835,218.338 255.668,194.338 247,170.5C 240.36,160.726 231.193,157.226 219.5,160C 206.87,165.426 201.703,174.926 204,188.5C 209.989,206.621 216.156,224.621 222.5,242.5C 225.192,250.247 227.859,257.914 230.5,265.5C 233.839,275.849 237.172,286.182 240.5,296.5C 243.029,303.421 245.363,310.421 247.5,317.5C 253.243,337.872 265.91,344.038 285.5,336C 293.231,329.746 296.231,321.913 294.5,312.5C 293.104,305.645 291.104,298.978 288.5,292.5C 286.142,283.926 283.476,275.426 280.5,267C 282.313,263.089 284.813,262.589 288,265.5C 291.137,273.745 293.971,282.078 296.5,290.5C 299.069,297.54 301.402,304.54 303.5,311.5C 304.27,327.649 297.603,339.315 283.5,346.5C 277.528,348.167 271.528,348.5 265.5,347.5C 257.98,346.153 251.813,342.487 247,336.5C 243.472,330.392 240.639,324.058 238.5,317.5C 236.767,309.879 234.434,302.545 231.5,295.5C 227.64,284.585 223.973,273.585 220.5,262.5C 218.009,255.02 215.342,247.687 212.5,240.5C 207.51,223.696 202.01,207.029 196,190.5C 193.382,174.413 198.882,162.08 212.5,153.5C 218.559,151.007 224.892,150.007 231.5,150.5 Z"/></g>
<g><path style="opacity:1" fill="#3db6fd" d="M 212.5,153.5 C 198.882,162.08 193.382,174.413 196,190.5C 202.01,207.029 207.51,223.696 212.5,240.5C 193.018,237.342 176.185,229.009 162,215.5C 150.165,198.393 152.665,183.559 169.5,171C 182.483,161.948 196.816,156.114 212.5,153.5 Z"/></g>
<g><path style="opacity:1" fill="#3eb5fc" d="M 271.5,242.5 C 259.547,244.399 247.547,244.732 235.5,243.5C 231.069,231.71 226.902,219.71 223,207.5C 222.293,205.919 221.46,204.419 220.5,203C 214.92,201.739 213.087,203.906 215,209.5C 218.611,220.165 222.111,230.832 225.5,241.5C 224.791,242.404 223.791,242.737 222.5,242.5C 216.156,224.621 209.989,206.621 204,188.5C 201.703,174.926 206.87,165.426 219.5,160C 231.193,157.226 240.36,160.726 247,170.5C 255.668,194.338 263.835,218.338 271.5,242.5 Z"/></g>
<g><path style="opacity:1" fill="#3cb6fe" d="M 156.5,226.5 C 160.486,235.658 166.82,242.825 175.5,248C 189.53,255.955 204.53,260.788 220.5,262.5C 223.973,273.585 227.64,284.585 231.5,295.5C 211.91,294.852 193.577,289.685 176.5,280C 166.334,274.011 159.334,265.511 155.5,254.5C 155.173,244.985 155.506,235.652 156.5,226.5 Z"/></g>
<g><path style="opacity:1" fill="#99d9ff" d="M 156.5,226.5 C 155.506,235.652 155.173,244.985 155.5,254.5C 154.341,244.008 154.175,233.341 155,222.5C 155.791,223.745 156.291,225.078 156.5,226.5 Z"/></g>
<g><path style="opacity:1" fill="#fef3ed" d="M 225.5,241.5 C 228.294,249.209 231.294,256.875 234.5,264.5C 232.901,264.232 231.568,264.566 230.5,265.5C 227.859,257.914 225.192,250.247 222.5,242.5C 223.791,242.737 224.791,242.404 225.5,241.5 Z"/></g>
<g><path style="opacity:1" fill="#fdfcfc" d="M 271.5,242.5 C 272.268,243.263 272.768,244.263 273,245.5C 274.863,253.746 272.363,260.08 265.5,264.5C 259.651,264.816 253.984,265.482 248.5,266.5C 245.215,265.05 242.715,262.717 241,259.5C 238.863,254.255 237.03,248.922 235.5,243.5C 247.547,244.732 259.547,244.399 271.5,242.5 Z"/></g>
<g><path style="opacity:1" fill="#3fb6fc" d="M 296.5,290.5 C 293.971,282.078 291.137,273.745 288,265.5C 284.813,262.589 282.313,263.089 280.5,267C 283.476,275.426 286.142,283.926 288.5,292.5C 272.746,296.058 256.746,297.391 240.5,296.5C 237.172,286.182 233.839,275.849 230.5,265.5C 231.568,264.566 232.901,264.232 234.5,264.5C 236.289,267.457 238.622,269.957 241.5,272C 256.872,279.49 269.539,276.324 279.5,262.5C 302.344,259.993 321.844,250.66 338,234.5C 340.434,231.205 342.101,227.538 343,223.5C 350.229,250.851 341.396,270.684 316.5,283C 309.921,285.803 303.254,288.303 296.5,290.5 Z"/></g>
<g><path style="opacity:1" fill="#6bb4e8" d="M 265.5,264.5 C 260.366,268.898 254.7,269.565 248.5,266.5C 253.984,265.482 259.651,264.816 265.5,264.5 Z"/></g>
<g><path style="opacity:1" fill="#3eb6fe" d="M 283.5,346.5 C 297.603,339.315 304.27,327.649 303.5,311.5C 303.5,310.5 303.5,309.5 303.5,308.5C 318.083,304.966 329.917,297.299 339,285.5C 340.893,282.382 342.226,279.049 343,275.5C 343.667,286.167 343.667,296.833 343,307.5C 341.417,314.501 337.917,320.334 332.5,325C 317.908,335.959 301.575,343.125 283.5,346.5 Z"/></g>
<g><path style="opacity:1" fill="#3cb6fe" d="M 156.5,278.5 C 162.776,291.604 172.776,300.771 186.5,306C 203.095,313.155 220.428,316.988 238.5,317.5C 240.639,324.058 243.472,330.392 247,336.5C 251.813,342.487 257.98,346.153 265.5,347.5C 231.104,353.121 199.104,346.621 169.5,328C 161.88,322.245 157.214,314.745 155.5,305.5C 155.173,296.318 155.507,287.318 156.5,278.5 Z"/></g>
<g><path style="opacity:1" fill="#98d8ff" d="M 156.5,278.5 C 155.507,287.318 155.173,296.318 155.5,305.5C 154.341,295.008 154.175,284.341 155,273.5C 155.352,275.247 155.852,276.914 156.5,278.5 Z"/></g>
<g><path style="opacity:1" fill="#fcfdfe" d="M 288.5,292.5 C 291.104,298.978 293.104,305.645 294.5,312.5C 279.079,316.321 263.413,317.988 247.5,317.5C 245.363,310.421 243.029,303.421 240.5,296.5C 256.746,297.391 272.746,296.058 288.5,292.5 Z"/></g>
<g><path style="opacity:1" fill="#3fb5fc" d="M 294.5,312.5 C 296.231,321.913 293.231,329.746 285.5,336C 265.91,344.038 253.243,337.872 247.5,317.5C 263.413,317.988 279.079,316.321 294.5,312.5 Z"/></g>
</svg>
