<svg width="32" height="32" viewBox="0 0 32 32" fill="none" xmlns="http://www.w3.org/2000/svg">
  <!-- Background circle with gradient -->
  <circle cx="16" cy="16" r="16" fill="url(#gradient1)"/>
  
  <!-- Shield shape -->
  <path d="M16 4L11 6.5V12C11 17.5 13.5 22 16 24C18.5 22 21 17.5 21 12V6.5L16 4Z" fill="url(#gradient2)" stroke="rgba(255,255,255,0.4)" stroke-width="0.8"/>
  
  <!-- Lock icon in center -->
  <rect x="14" y="14" width="4" height="3" rx="0.8" fill="white" opacity="0.95"/>
  <path d="M14.5 14V12.5C14.5 11.7 15.2 11 16 11C16.8 11 17.5 11.7 17.5 12.5V14" stroke="white" stroke-width="1.2" fill="none" opacity="0.95"/>
  
  <!-- Small sparkles -->
  <circle cx="12" cy="9" r="0.8" fill="white" opacity="0.8"/>
  <circle cx="20" cy="10" r="0.6" fill="white" opacity="0.7"/>
  
  <!-- Gradients -->
  <defs>
    <linearGradient id="gradient1" x1="0%" y1="0%" x2="100%" y2="100%">
      <stop offset="0%" stop-color="#F59E0B"/>
      <stop offset="50%" stop-color="#F97316"/>
      <stop offset="100%" stop-color="#EA580C"/>
    </linearGradient>
    
    <linearGradient id="gradient2" x1="0%" y1="0%" x2="100%" y2="100%">
      <stop offset="0%" stop-color="rgba(255,255,255,0.25)"/>
      <stop offset="100%" stop-color="rgba(255,255,255,0.1)"/>
    </linearGradient>
  </defs>
</svg>
